<?xml version="1.0" encoding="utf-8"?>
<!-- Generator: Adobe Illustrator 27.9.0, SVG Export Plug-In . SVG Version: 6.00 Build 0)  -->
<svg version="1.1" id="Layer_1" xmlns="http://www.w3.org/2000/svg" xmlns:xlink="http://www.w3.org/1999/xlink" x="0px" y="0px"
	 viewBox="0 0 1080 1080" style="enable-background:new 0 0 1080 1080;" xml:space="preserve">
<g>
	<path d="M117.28,501.02h-5.11c0-11.02,9.01-20.03,20.03-20.03h80.52c2.42,0,4.44,2.02,4.44,4.44c0,2.42-2.02,4.44-4.44,4.44H132.2
		c-4.84,0-9.14,3.23-10.49,7.8C121.05,499.54,119.43,501.02,117.28,501.02z M225.63,546.99v13.85c0,11.02-9.01,20.03-20.16,20.03
		h-87.38c-2.42,0-4.44-2.02-4.44-4.44s2.02-4.44,4.44-4.44h87.38c6.18,0,11.16-4.97,11.16-11.16v-13.85
		c0-6.18-4.97-11.16-11.16-11.16H132.2c-11.02,0-20.03-9.01-20.03-20.03h5.11c2.15,0,3.76,1.34,4.44,3.36
		c1.34,4.44,5.65,7.8,10.49,7.8h73.26C216.63,526.96,225.63,535.83,225.63,546.99z"/>
	<path d="M231.01,485.42c0-2.42,2.02-4.44,4.44-4.44h89.53c2.42,0,4.44,2.02,4.44,4.44c0,2.42-2.02,4.44-4.44,4.44h-89.53
		C233.03,489.86,231.01,487.84,231.01,485.42z M333.18,576.43c0,2.42-2.02,4.44-4.44,4.44H245.8c-8.2,0-14.79-6.59-14.79-14.79
		v-36.7c0-8.2,6.59-14.79,14.79-14.79h71.11c2.42,0,4.44,2.02,4.44,4.44c0,2.42-2.02,4.44-4.44,4.44H245.8
		c-3.23,0-5.92,2.69-5.92,5.92v36.7c0,3.23,2.69,5.92,5.92,5.92h82.94C331.16,571.99,333.18,574.01,333.18,576.43z"/>
	<path d="M451.47,480.98l-44.9,49.47c-2.96,3.36-7.12,5.24-11.7,5.24c-4.44,0-8.74-1.88-11.7-5.24l-44.63-49.47h9.95
		c1.34,0,2.55,0.54,3.36,1.48l37.91,42.08c2.82,2.96,7.53,2.96,10.22,0l38.04-42.08c0.94-0.94,2.15-1.48,3.36-1.48H451.47z
		 M399.85,552.5v23.93c0,2.42-2.02,4.44-4.44,4.44c-2.55,0-4.57-2.02-4.57-4.44V552.5c0-2.42,2.02-4.44,4.57-4.44
		C397.84,548.07,399.85,550.08,399.85,552.5z"/>
	<path d="M452.95,531.4h5.24l-9.14,45.71c-0.4,2.15-2.29,3.77-4.44,3.77h-5.24l9.14-45.84C448.92,532.88,450.8,531.4,452.95,531.4z
		 M593.7,580.87h-5.24c-2.15,0-4.03-1.61-4.44-3.77l-14.65-82.4l-41.41,78.91c-2.15,4.44-6.59,7.12-11.43,7.12
		c-4.84,0-9.28-2.69-11.43-6.99l-40.87-79.05l-2.29,14.12c-0.27,2.15-2.15,3.76-4.3,3.76h-5.24l4.17-25.95
		c0.54-2.96,2.82-5.24,5.78-5.65c2.82-0.4,5.65,1.08,6.99,3.76l43.82,84.96c0.94,2.02,2.69,2.15,3.36,2.15
		c0.67,0,2.42-0.13,3.36-2.15l44.36-84.96c1.34-2.69,4.17-4.17,7.12-3.76c2.82,0.4,5.11,2.69,5.65,5.65L593.7,580.87z"/>
	<path d="M724.64,485.42v65.2c0,16.67-13.44,30.25-30.11,30.25h-65.33c-16.67,0-30.11-13.58-30.11-30.25v-14.79
		c0-2.55,1.88-4.44,4.44-4.44c2.42,0,4.44,1.88,4.44,4.44v14.79c0,11.83,9.54,21.38,21.24,21.38h65.33
		c11.7,0,21.24-9.54,21.24-21.38v-65.2c0-2.42,2.02-4.44,4.44-4.44C722.62,480.98,724.64,483,724.64,485.42z M599.08,503.97v-18.55
		c0-2.42,1.88-4.44,4.44-4.44c2.42,0,4.44,2.02,4.44,4.44v18.55c0,2.55-2.02,4.44-4.44,4.44
		C600.96,508.41,599.08,506.53,599.08,503.97z"/>
	<path d="M837.56,579.93c-1.75,1.48-4.44,1.07-5.92-0.54l-39.79-38.98H757.3c-2.42,0-4.44-2.02-4.44-4.44s2.02-4.44,4.44-4.44h55.25
		c6.59,0,12.1-5.38,12.1-12.1v-17.48c0-6.72-5.51-12.1-12.1-12.1h-67.21c-3.5,0-6.45,2.82-6.45,6.45v80.12
		c0,2.42-2.02,4.44-4.44,4.44s-4.44-2.02-4.44-4.44v-81.2c0-7.93,6.32-14.25,14.25-14.25h68.29c11.56,0,20.97,9.41,20.97,20.97
		v17.48c0,11.56-9.41,20.97-20.97,20.97h-8.07l33.88,33.07C840.11,575.49,839.71,578.45,837.56,579.93z"/>
	<path d="M872.38,580.87c-16.67,0-30.11-13.58-30.11-30.25v-39.39c0-16.8,13.44-30.25,30.11-30.25h65.33
		c14.79,0,27.29,10.89,29.71,25c0.4,2.69-1.75,5.24-4.44,5.24c-2.15,0-4.03-1.61-4.3-3.63c-1.75-10.08-10.49-17.74-20.97-17.74
		h-65.33c-11.7,0-21.24,9.54-21.24,21.37v39.39c0,11.83,9.54,21.38,21.24,21.38h65.33c11.7,0,21.24-9.54,21.24-21.38v-15.19h-79.18
		c-2.42,0-4.44-2.02-4.44-4.57c0-2.42,2.02-4.44,4.44-4.44h88.05v24.2c0,16.67-13.44,30.25-30.11,30.25H872.38z"/>
</g>
</svg>
